<mxfile host="app.diagrams.net" modified="2024-01-06T06:11:43.451Z" agent="Mozilla/5.0 (Windows NT 10.0; Win64; x64) AppleWebKit/537.36 (KHTML, like Gecko) Chrome/120.0.0.0 Safari/537.36" etag="6_5iB0XU5lNT_dWNbhFd" version="22.1.17" type="device">
  <diagram name="Page-1" id="tNcShORr1E2epAsA2CIY">
    <mxGraphModel dx="1313" dy="653" grid="1" gridSize="10" guides="1" tooltips="1" connect="1" arrows="1" fold="1" page="1" pageScale="1" pageWidth="850" pageHeight="1100" math="0" shadow="0">
      <root>
        <mxCell id="0" />
        <mxCell id="1" parent="0" />
        <mxCell id="bphD4z5EsP9qVGaKrKJl-1" value="" style="endArrow=none;html=1;rounded=0;" parent="1" edge="1">
          <mxGeometry width="50" height="50" relative="1" as="geometry">
            <mxPoint x="45" y="80" as="sourcePoint" />
            <mxPoint x="805" y="80" as="targetPoint" />
          </mxGeometry>
        </mxCell>
        <mxCell id="bphD4z5EsP9qVGaKrKJl-2" value="" style="endArrow=none;html=1;rounded=0;" parent="1" edge="1">
          <mxGeometry width="50" height="50" relative="1" as="geometry">
            <mxPoint x="290" y="9.2" as="sourcePoint" />
            <mxPoint x="290" y="1050.000048828125" as="targetPoint" />
          </mxGeometry>
        </mxCell>
        <mxCell id="bphD4z5EsP9qVGaKrKJl-3" value="" style="endArrow=none;html=1;rounded=0;" parent="1" edge="1">
          <mxGeometry width="50" height="50" relative="1" as="geometry">
            <mxPoint x="600" y="10" as="sourcePoint" />
            <mxPoint x="600" y="1040.800048828125" as="targetPoint" />
          </mxGeometry>
        </mxCell>
        <mxCell id="bphD4z5EsP9qVGaKrKJl-4" value="&lt;span style=&quot;font-size: 14px;&quot;&gt;&lt;b&gt;Patient&lt;/b&gt;&lt;/span&gt;" style="text;html=1;align=center;verticalAlign=middle;resizable=0;points=[];autosize=1;strokeColor=none;fillColor=none;" parent="1" vertex="1">
          <mxGeometry x="135" y="38" width="70" height="30" as="geometry" />
        </mxCell>
        <mxCell id="bphD4z5EsP9qVGaKrKJl-5" value="&lt;b&gt;&lt;font style=&quot;font-size: 14px;&quot;&gt;Doctor&lt;/font&gt;&lt;/b&gt;" style="text;html=1;align=center;verticalAlign=middle;resizable=0;points=[];autosize=1;strokeColor=none;fillColor=none;" parent="1" vertex="1">
          <mxGeometry x="405" y="38" width="70" height="30" as="geometry" />
        </mxCell>
        <mxCell id="bphD4z5EsP9qVGaKrKJl-6" value="&lt;span style=&quot;font-size: 14px;&quot;&gt;&lt;b&gt;Admin&lt;/b&gt;&lt;/span&gt;" style="text;html=1;align=center;verticalAlign=middle;resizable=0;points=[];autosize=1;strokeColor=none;fillColor=none;" parent="1" vertex="1">
          <mxGeometry x="670" y="38" width="70" height="30" as="geometry" />
        </mxCell>
        <mxCell id="bphD4z5EsP9qVGaKrKJl-9" value="" style="edgeStyle=orthogonalEdgeStyle;rounded=0;orthogonalLoop=1;jettySize=auto;html=1;" parent="1" source="bphD4z5EsP9qVGaKrKJl-7" edge="1">
          <mxGeometry relative="1" as="geometry">
            <mxPoint x="160" y="190" as="targetPoint" />
          </mxGeometry>
        </mxCell>
        <mxCell id="bphD4z5EsP9qVGaKrKJl-7" value="" style="ellipse;whiteSpace=wrap;html=1;" parent="1" vertex="1">
          <mxGeometry x="135" y="120" width="50" height="30" as="geometry" />
        </mxCell>
        <mxCell id="bphD4z5EsP9qVGaKrKJl-15" value="" style="edgeStyle=orthogonalEdgeStyle;rounded=0;orthogonalLoop=1;jettySize=auto;html=1;" parent="1" edge="1">
          <mxGeometry relative="1" as="geometry">
            <mxPoint x="159.5" y="220" as="sourcePoint" />
            <mxPoint x="159.5" y="240" as="targetPoint" />
          </mxGeometry>
        </mxCell>
        <mxCell id="bphD4z5EsP9qVGaKrKJl-19" value="&lt;b&gt;Login&lt;/b&gt;" style="rounded=0;whiteSpace=wrap;html=1;" parent="1" vertex="1">
          <mxGeometry x="120" y="190" width="80" height="30" as="geometry" />
        </mxCell>
        <mxCell id="bphD4z5EsP9qVGaKrKJl-20" value="&lt;b&gt;check appointmet notification&lt;/b&gt;" style="rounded=0;whiteSpace=wrap;html=1;" parent="1" vertex="1">
          <mxGeometry x="70" y="440" width="100" height="40" as="geometry" />
        </mxCell>
        <mxCell id="bphD4z5EsP9qVGaKrKJl-21" value="&lt;b&gt;Update Profile&lt;/b&gt;" style="rounded=0;whiteSpace=wrap;html=1;" parent="1" vertex="1">
          <mxGeometry x="200" y="440" width="80" height="30" as="geometry" />
        </mxCell>
        <mxCell id="bphD4z5EsP9qVGaKrKJl-22" value="&lt;b&gt;Check validation&lt;/b&gt;" style="rounded=0;whiteSpace=wrap;html=1;" parent="1" vertex="1">
          <mxGeometry x="670" y="230" width="80" height="30" as="geometry" />
        </mxCell>
        <mxCell id="bphD4z5EsP9qVGaKrKJl-23" value="&lt;b&gt;see doctor-list&lt;/b&gt;" style="rounded=0;whiteSpace=wrap;html=1;" parent="1" vertex="1">
          <mxGeometry x="10" y="510" width="80" height="30" as="geometry" />
        </mxCell>
        <mxCell id="bphD4z5EsP9qVGaKrKJl-24" value="&lt;b&gt;add or delete doctor&amp;nbsp;&lt;/b&gt;" style="rounded=0;whiteSpace=wrap;html=1;" parent="1" vertex="1">
          <mxGeometry x="730" y="650" width="80" height="30" as="geometry" />
        </mxCell>
        <mxCell id="bphD4z5EsP9qVGaKrKJl-25" value="&lt;b&gt;Enter email, password.&lt;/b&gt;" style="rounded=0;whiteSpace=wrap;html=1;" parent="1" vertex="1">
          <mxGeometry x="120" y="240" width="80" height="30" as="geometry" />
        </mxCell>
        <mxCell id="bphD4z5EsP9qVGaKrKJl-26" value="" style="rhombus;whiteSpace=wrap;html=1;" parent="1" vertex="1">
          <mxGeometry x="700" y="290" width="50" height="50" as="geometry" />
        </mxCell>
        <mxCell id="bphD4z5EsP9qVGaKrKJl-28" value="" style="line;strokeWidth=2;html=1;" parent="1" vertex="1">
          <mxGeometry x="350" y="330" width="160" height="10" as="geometry" />
        </mxCell>
        <mxCell id="bphD4z5EsP9qVGaKrKJl-29" value="" style="ellipse;whiteSpace=wrap;html=1;" parent="1" vertex="1">
          <mxGeometry x="400" y="130" width="50" height="40" as="geometry" />
        </mxCell>
        <mxCell id="bphD4z5EsP9qVGaKrKJl-30" value="" style="ellipse;whiteSpace=wrap;html=1;" parent="1" vertex="1">
          <mxGeometry x="700" y="130" width="50" height="40" as="geometry" />
        </mxCell>
        <mxCell id="bphD4z5EsP9qVGaKrKJl-32" value="" style="endArrow=classic;html=1;rounded=0;exitX=0;exitY=0.5;exitDx=0;exitDy=0;entryX=1;entryY=0.75;entryDx=0;entryDy=0;" parent="1" source="bphD4z5EsP9qVGaKrKJl-30" target="bphD4z5EsP9qVGaKrKJl-19" edge="1">
          <mxGeometry width="50" height="50" relative="1" as="geometry">
            <mxPoint x="505" y="200" as="sourcePoint" />
            <mxPoint x="555" y="150" as="targetPoint" />
            <Array as="points">
              <mxPoint x="480" y="150" />
              <mxPoint x="480" y="213" />
            </Array>
          </mxGeometry>
        </mxCell>
        <mxCell id="bphD4z5EsP9qVGaKrKJl-33" value="" style="endArrow=classic;html=1;rounded=0;exitX=0.66;exitY=1.093;exitDx=0;exitDy=0;exitPerimeter=0;" parent="1" source="bphD4z5EsP9qVGaKrKJl-22" edge="1">
          <mxGeometry width="50" height="50" relative="1" as="geometry">
            <mxPoint x="710" y="270" as="sourcePoint" />
            <mxPoint x="723" y="290" as="targetPoint" />
          </mxGeometry>
        </mxCell>
        <mxCell id="bphD4z5EsP9qVGaKrKJl-35" value="" style="endArrow=classic;html=1;rounded=0;exitX=1;exitY=0.5;exitDx=0;exitDy=0;" parent="1" source="bphD4z5EsP9qVGaKrKJl-25" edge="1">
          <mxGeometry width="50" height="50" relative="1" as="geometry">
            <mxPoint x="355" y="280" as="sourcePoint" />
            <mxPoint x="670" y="250" as="targetPoint" />
          </mxGeometry>
        </mxCell>
        <mxCell id="bphD4z5EsP9qVGaKrKJl-36" value="" style="endArrow=classic;html=1;rounded=0;exitX=1;exitY=0.5;exitDx=0;exitDy=0;" parent="1" source="bphD4z5EsP9qVGaKrKJl-26" edge="1">
          <mxGeometry width="50" height="50" relative="1" as="geometry">
            <mxPoint x="735" y="315" as="sourcePoint" />
            <mxPoint x="190" y="190" as="targetPoint" />
            <Array as="points">
              <mxPoint x="785" y="315" />
              <mxPoint x="785" y="120" />
              <mxPoint x="190" y="120" />
            </Array>
          </mxGeometry>
        </mxCell>
        <mxCell id="bphD4z5EsP9qVGaKrKJl-37" value="&lt;b&gt;Invalid&lt;/b&gt;" style="text;html=1;align=center;verticalAlign=middle;resizable=0;points=[];autosize=1;strokeColor=none;fillColor=none;" parent="1" vertex="1">
          <mxGeometry x="780" y="238" width="60" height="30" as="geometry" />
        </mxCell>
        <mxCell id="bphD4z5EsP9qVGaKrKJl-38" value="" style="endArrow=classic;html=1;rounded=0;exitX=0;exitY=0.5;exitDx=0;exitDy=0;entryX=0.75;entryY=0.5;entryDx=0;entryDy=0;entryPerimeter=0;" parent="1" source="bphD4z5EsP9qVGaKrKJl-26" target="bphD4z5EsP9qVGaKrKJl-28" edge="1">
          <mxGeometry width="50" height="50" relative="1" as="geometry">
            <mxPoint x="400" y="200" as="sourcePoint" />
            <mxPoint x="450" y="150" as="targetPoint" />
            <Array as="points">
              <mxPoint x="470" y="315" />
            </Array>
          </mxGeometry>
        </mxCell>
        <mxCell id="bphD4z5EsP9qVGaKrKJl-42" value="&lt;b&gt;Valid&lt;/b&gt;" style="text;html=1;align=center;verticalAlign=middle;resizable=0;points=[];autosize=1;strokeColor=none;fillColor=none;" parent="1" vertex="1">
          <mxGeometry x="505" y="288" width="50" height="30" as="geometry" />
        </mxCell>
        <mxCell id="bphD4z5EsP9qVGaKrKJl-46" value="" style="endArrow=classic;html=1;rounded=0;entryX=1;entryY=0.25;entryDx=0;entryDy=0;exitX=0.5;exitY=1;exitDx=0;exitDy=0;" parent="1" source="bphD4z5EsP9qVGaKrKJl-29" target="bphD4z5EsP9qVGaKrKJl-19" edge="1">
          <mxGeometry width="50" height="50" relative="1" as="geometry">
            <mxPoint x="410" y="180" as="sourcePoint" />
            <mxPoint x="450" y="130" as="targetPoint" />
            <Array as="points">
              <mxPoint x="425" y="198" />
            </Array>
          </mxGeometry>
        </mxCell>
        <mxCell id="bphD4z5EsP9qVGaKrKJl-47" value="&lt;b&gt;usser Pannel&lt;/b&gt;" style="rounded=0;whiteSpace=wrap;html=1;" parent="1" vertex="1">
          <mxGeometry x="110" y="370" width="80" height="30" as="geometry" />
        </mxCell>
        <mxCell id="bphD4z5EsP9qVGaKrKJl-48" value="&lt;b&gt;Update Profile&lt;/b&gt;" style="rounded=0;whiteSpace=wrap;html=1;" parent="1" vertex="1">
          <mxGeometry x="510" y="390" width="80" height="30" as="geometry" />
        </mxCell>
        <mxCell id="bphD4z5EsP9qVGaKrKJl-67" value="" style="edgeStyle=orthogonalEdgeStyle;rounded=0;orthogonalLoop=1;jettySize=auto;html=1;" parent="1" source="bphD4z5EsP9qVGaKrKJl-49" target="bphD4z5EsP9qVGaKrKJl-66" edge="1">
          <mxGeometry relative="1" as="geometry" />
        </mxCell>
        <mxCell id="bphD4z5EsP9qVGaKrKJl-49" value="&lt;b&gt;Apply as a doctor&lt;/b&gt;" style="rounded=0;whiteSpace=wrap;html=1;" parent="1" vertex="1">
          <mxGeometry x="405" y="390" width="80" height="30" as="geometry" />
        </mxCell>
        <mxCell id="bphD4z5EsP9qVGaKrKJl-51" value="&lt;b&gt;Update Profile&lt;/b&gt;" style="rounded=0;whiteSpace=wrap;html=1;" parent="1" vertex="1">
          <mxGeometry x="760" y="400" width="80" height="30" as="geometry" />
        </mxCell>
        <mxCell id="bphD4z5EsP9qVGaKrKJl-52" value="&lt;b&gt;Check Appointment list&lt;/b&gt;" style="rounded=0;whiteSpace=wrap;html=1;" parent="1" vertex="1">
          <mxGeometry x="300" y="490" width="90" height="40" as="geometry" />
        </mxCell>
        <mxCell id="bphD4z5EsP9qVGaKrKJl-53" value="" style="endArrow=classic;html=1;rounded=0;exitX=0.25;exitY=0.5;exitDx=0;exitDy=0;exitPerimeter=0;entryX=0.63;entryY=-0.133;entryDx=0;entryDy=0;entryPerimeter=0;" parent="1" source="bphD4z5EsP9qVGaKrKJl-28" target="bphD4z5EsP9qVGaKrKJl-47" edge="1">
          <mxGeometry width="50" height="50" relative="1" as="geometry">
            <mxPoint x="470" y="370" as="sourcePoint" />
            <mxPoint x="150" y="340" as="targetPoint" />
            <Array as="points">
              <mxPoint x="390" y="350" />
              <mxPoint x="160" y="350" />
            </Array>
          </mxGeometry>
        </mxCell>
        <mxCell id="bphD4z5EsP9qVGaKrKJl-54" value="" style="endArrow=classic;html=1;rounded=0;entryX=0.625;entryY=0;entryDx=0;entryDy=0;entryPerimeter=0;exitX=1;exitY=0.667;exitDx=0;exitDy=0;exitPerimeter=0;" parent="1" source="bphD4z5EsP9qVGaKrKJl-47" target="bphD4z5EsP9qVGaKrKJl-21" edge="1">
          <mxGeometry width="50" height="50" relative="1" as="geometry">
            <mxPoint x="200" y="390" as="sourcePoint" />
            <mxPoint x="275" y="385" as="targetPoint" />
            <Array as="points">
              <mxPoint x="250" y="390" />
            </Array>
          </mxGeometry>
        </mxCell>
        <mxCell id="bphD4z5EsP9qVGaKrKJl-55" value="" style="endArrow=classic;html=1;rounded=0;exitX=0.25;exitY=1;exitDx=0;exitDy=0;entryX=0.6;entryY=0;entryDx=0;entryDy=0;entryPerimeter=0;" parent="1" source="bphD4z5EsP9qVGaKrKJl-47" target="bphD4z5EsP9qVGaKrKJl-20" edge="1">
          <mxGeometry width="50" height="50" relative="1" as="geometry">
            <mxPoint x="400" y="380" as="sourcePoint" />
            <mxPoint x="450" y="330" as="targetPoint" />
          </mxGeometry>
        </mxCell>
        <mxCell id="bphD4z5EsP9qVGaKrKJl-56" value="" style="endArrow=classic;html=1;rounded=0;exitX=0;exitY=0.25;exitDx=0;exitDy=0;entryX=0.4;entryY=0;entryDx=0;entryDy=0;entryPerimeter=0;" parent="1" source="bphD4z5EsP9qVGaKrKJl-47" target="bphD4z5EsP9qVGaKrKJl-23" edge="1">
          <mxGeometry width="50" height="50" relative="1" as="geometry">
            <mxPoint x="400" y="380" as="sourcePoint" />
            <mxPoint x="450" y="330" as="targetPoint" />
            <Array as="points">
              <mxPoint x="40" y="378" />
            </Array>
          </mxGeometry>
        </mxCell>
        <mxCell id="bphD4z5EsP9qVGaKrKJl-57" value="&lt;b&gt;Search doctor specialization&lt;/b&gt;" style="rounded=0;whiteSpace=wrap;html=1;" parent="1" vertex="1">
          <mxGeometry x="10" y="570" width="90" height="30" as="geometry" />
        </mxCell>
        <mxCell id="bphD4z5EsP9qVGaKrKJl-79" value="" style="edgeStyle=orthogonalEdgeStyle;rounded=0;orthogonalLoop=1;jettySize=auto;html=1;" parent="1" source="bphD4z5EsP9qVGaKrKJl-58" target="bphD4z5EsP9qVGaKrKJl-78" edge="1">
          <mxGeometry relative="1" as="geometry" />
        </mxCell>
        <mxCell id="bphD4z5EsP9qVGaKrKJl-58" value="&lt;b&gt;Check&lt;br&gt;availability&lt;/b&gt;" style="rounded=0;whiteSpace=wrap;html=1;" parent="1" vertex="1">
          <mxGeometry x="10" y="630" width="90" height="30" as="geometry" />
        </mxCell>
        <mxCell id="bphD4z5EsP9qVGaKrKJl-60" value="" style="endArrow=classic;html=1;rounded=0;exitX=0.5;exitY=1;exitDx=0;exitDy=0;" parent="1" source="bphD4z5EsP9qVGaKrKJl-23" edge="1">
          <mxGeometry width="50" height="50" relative="1" as="geometry">
            <mxPoint x="400" y="580" as="sourcePoint" />
            <mxPoint x="50" y="570" as="targetPoint" />
          </mxGeometry>
        </mxCell>
        <mxCell id="bphD4z5EsP9qVGaKrKJl-61" value="" style="endArrow=classic;html=1;rounded=0;exitX=0.5;exitY=1;exitDx=0;exitDy=0;" parent="1" edge="1">
          <mxGeometry width="50" height="50" relative="1" as="geometry">
            <mxPoint x="49.5" y="600" as="sourcePoint" />
            <mxPoint x="49.5" y="630" as="targetPoint" />
          </mxGeometry>
        </mxCell>
        <mxCell id="bphD4z5EsP9qVGaKrKJl-62" value="" style="line;strokeWidth=2;html=1;" parent="1" vertex="1">
          <mxGeometry x="25" y="870" width="245" height="10" as="geometry" />
        </mxCell>
        <mxCell id="bphD4z5EsP9qVGaKrKJl-65" value="" style="endArrow=classic;html=1;rounded=0;exitX=0.87;exitY=0.96;exitDx=0;exitDy=0;exitPerimeter=0;entryX=0.64;entryY=0.053;entryDx=0;entryDy=0;entryPerimeter=0;" parent="1" source="bphD4z5EsP9qVGaKrKJl-28" target="bphD4z5EsP9qVGaKrKJl-48" edge="1">
          <mxGeometry width="50" height="50" relative="1" as="geometry">
            <mxPoint x="400" y="480" as="sourcePoint" />
            <mxPoint x="570" y="370" as="targetPoint" />
            <Array as="points">
              <mxPoint x="490" y="360" />
              <mxPoint x="560" y="360" />
            </Array>
          </mxGeometry>
        </mxCell>
        <mxCell id="bphD4z5EsP9qVGaKrKJl-66" value="" style="rhombus;whiteSpace=wrap;html=1;" parent="1" vertex="1">
          <mxGeometry x="420" y="440" width="50" height="50" as="geometry" />
        </mxCell>
        <mxCell id="bphD4z5EsP9qVGaKrKJl-70" value="" style="endArrow=classic;html=1;rounded=0;exitX=0.25;exitY=1;exitDx=0;exitDy=0;entryX=0.6;entryY=0;entryDx=0;entryDy=0;entryPerimeter=0;" parent="1" edge="1">
          <mxGeometry width="50" height="50" relative="1" as="geometry">
            <mxPoint x="444.5" y="490" as="sourcePoint" />
            <mxPoint x="444.5" y="530" as="targetPoint" />
          </mxGeometry>
        </mxCell>
        <mxCell id="bphD4z5EsP9qVGaKrKJl-71" value="" style="endArrow=classic;html=1;rounded=0;exitX=0.625;exitY=1;exitDx=0;exitDy=0;exitPerimeter=0;" parent="1" source="bphD4z5EsP9qVGaKrKJl-28" edge="1">
          <mxGeometry width="50" height="50" relative="1" as="geometry">
            <mxPoint x="400" y="480" as="sourcePoint" />
            <mxPoint x="450" y="390" as="targetPoint" />
          </mxGeometry>
        </mxCell>
        <mxCell id="bphD4z5EsP9qVGaKrKJl-73" value="&lt;b&gt;Approved&lt;/b&gt;" style="text;html=1;align=center;verticalAlign=middle;resizable=0;points=[];autosize=1;strokeColor=none;fillColor=none;" parent="1" vertex="1">
          <mxGeometry x="435" y="490" width="80" height="30" as="geometry" />
        </mxCell>
        <mxCell id="bphD4z5EsP9qVGaKrKJl-74" value="&lt;b&gt;Reject&lt;/b&gt;" style="text;html=1;align=center;verticalAlign=middle;resizable=0;points=[];autosize=1;strokeColor=none;fillColor=none;" parent="1" vertex="1">
          <mxGeometry x="390" y="430" width="60" height="30" as="geometry" />
        </mxCell>
        <mxCell id="bphD4z5EsP9qVGaKrKJl-75" value="&lt;b&gt;Doctor List&lt;/b&gt;" style="rounded=0;whiteSpace=wrap;html=1;" parent="1" vertex="1">
          <mxGeometry x="402.5" y="530" width="85" height="30" as="geometry" />
        </mxCell>
        <mxCell id="bphD4z5EsP9qVGaKrKJl-77" value="" style="endArrow=classic;html=1;rounded=0;exitX=0;exitY=0.5;exitDx=0;exitDy=0;" parent="1" source="bphD4z5EsP9qVGaKrKJl-66" edge="1">
          <mxGeometry width="50" height="50" relative="1" as="geometry">
            <mxPoint x="400" y="460" as="sourcePoint" />
            <mxPoint x="400" y="340" as="targetPoint" />
            <Array as="points">
              <mxPoint x="400" y="465" />
            </Array>
          </mxGeometry>
        </mxCell>
        <mxCell id="bphD4z5EsP9qVGaKrKJl-78" value="&lt;b&gt;Make an Appointment&lt;/b&gt;" style="rounded=0;whiteSpace=wrap;html=1;" parent="1" vertex="1">
          <mxGeometry x="10" y="700" width="90" height="30" as="geometry" />
        </mxCell>
        <mxCell id="bphD4z5EsP9qVGaKrKJl-80" value="&lt;b&gt;Select Department&lt;/b&gt;" style="rounded=0;whiteSpace=wrap;html=1;" parent="1" vertex="1">
          <mxGeometry x="402.5" y="600" width="90" height="30" as="geometry" />
        </mxCell>
        <mxCell id="bphD4z5EsP9qVGaKrKJl-82" value="" style="edgeStyle=orthogonalEdgeStyle;rounded=0;orthogonalLoop=1;jettySize=auto;html=1;" parent="1" target="bphD4z5EsP9qVGaKrKJl-83" edge="1">
          <mxGeometry relative="1" as="geometry">
            <mxPoint x="442.5" y="630" as="sourcePoint" />
          </mxGeometry>
        </mxCell>
        <mxCell id="bphD4z5EsP9qVGaKrKJl-83" value="&lt;b&gt;Make an Appointment&lt;/b&gt;" style="rounded=0;whiteSpace=wrap;html=1;" parent="1" vertex="1">
          <mxGeometry x="397.5" y="680" width="90" height="30" as="geometry" />
        </mxCell>
        <mxCell id="bphD4z5EsP9qVGaKrKJl-86" value="" style="edgeStyle=orthogonalEdgeStyle;rounded=0;orthogonalLoop=1;jettySize=auto;html=1;" parent="1" edge="1">
          <mxGeometry relative="1" as="geometry">
            <mxPoint x="449" y="560" as="sourcePoint" />
            <mxPoint x="449" y="600" as="targetPoint" />
          </mxGeometry>
        </mxCell>
        <mxCell id="bphD4z5EsP9qVGaKrKJl-87" value="" style="endArrow=classic;html=1;rounded=0;exitX=0.063;exitY=1;exitDx=0;exitDy=0;exitPerimeter=0;entryX=0.653;entryY=0.04;entryDx=0;entryDy=0;entryPerimeter=0;" parent="1" source="bphD4z5EsP9qVGaKrKJl-28" target="bphD4z5EsP9qVGaKrKJl-52" edge="1">
          <mxGeometry width="50" height="50" relative="1" as="geometry">
            <mxPoint x="400" y="580" as="sourcePoint" />
            <mxPoint x="450" y="530" as="targetPoint" />
          </mxGeometry>
        </mxCell>
        <mxCell id="bphD4z5EsP9qVGaKrKJl-90" value="" style="edgeStyle=orthogonalEdgeStyle;rounded=0;orthogonalLoop=1;jettySize=auto;html=1;" parent="1" edge="1">
          <mxGeometry relative="1" as="geometry">
            <mxPoint x="340" y="530" as="sourcePoint" />
            <mxPoint x="340" y="570" as="targetPoint" />
          </mxGeometry>
        </mxCell>
        <mxCell id="bphD4z5EsP9qVGaKrKJl-91" value="&lt;b&gt;Approved or reject&amp;nbsp; Appointment&lt;/b&gt;" style="rounded=0;whiteSpace=wrap;html=1;" parent="1" vertex="1">
          <mxGeometry x="300" y="570" width="90" height="40" as="geometry" />
        </mxCell>
        <mxCell id="bphD4z5EsP9qVGaKrKJl-92" value="&lt;b&gt;Get notification&lt;/b&gt;" style="rounded=0;whiteSpace=wrap;html=1;" parent="1" vertex="1">
          <mxGeometry x="300" y="640" width="90" height="30" as="geometry" />
        </mxCell>
        <mxCell id="bphD4z5EsP9qVGaKrKJl-95" value="" style="endArrow=classic;html=1;rounded=0;exitX=0.5;exitY=1;exitDx=0;exitDy=0;" parent="1" edge="1">
          <mxGeometry width="50" height="50" relative="1" as="geometry">
            <mxPoint x="344.5" y="610" as="sourcePoint" />
            <mxPoint x="344.5" y="640" as="targetPoint" />
          </mxGeometry>
        </mxCell>
        <mxCell id="bphD4z5EsP9qVGaKrKJl-96" value="" style="line;strokeWidth=2;html=1;" parent="1" vertex="1">
          <mxGeometry x="321.25" y="870" width="217.5" height="10" as="geometry" />
        </mxCell>
        <mxCell id="bphD4z5EsP9qVGaKrKJl-97" value="&lt;b&gt;add or remove&lt;/b&gt;" style="rounded=0;whiteSpace=wrap;html=1;" parent="1" vertex="1">
          <mxGeometry x="610" y="670" width="80" height="30" as="geometry" />
        </mxCell>
        <mxCell id="bphD4z5EsP9qVGaKrKJl-98" value="&lt;b&gt;check all application&lt;/b&gt;" style="rounded=0;whiteSpace=wrap;html=1;" parent="1" vertex="1">
          <mxGeometry x="610" y="430" width="80" height="30" as="geometry" />
        </mxCell>
        <mxCell id="bphD4z5EsP9qVGaKrKJl-99" value="&lt;b&gt;check all patient&lt;/b&gt;" style="rounded=0;whiteSpace=wrap;html=1;" parent="1" vertex="1">
          <mxGeometry x="690" y="570" width="80" height="30" as="geometry" />
        </mxCell>
        <mxCell id="bphD4z5EsP9qVGaKrKJl-100" value="&lt;b&gt;check all doctor&lt;/b&gt;" style="rounded=0;whiteSpace=wrap;html=1;" parent="1" vertex="1">
          <mxGeometry x="650" y="500" width="80" height="30" as="geometry" />
        </mxCell>
        <mxCell id="bphD4z5EsP9qVGaKrKJl-102" value="&lt;b&gt;Check all appointment&lt;/b&gt;" style="rounded=0;whiteSpace=wrap;html=1;" parent="1" vertex="1">
          <mxGeometry x="760" y="500" width="80" height="30" as="geometry" />
        </mxCell>
        <mxCell id="bphD4z5EsP9qVGaKrKJl-103" value="" style="line;strokeWidth=2;html=1;" parent="1" vertex="1">
          <mxGeometry x="650" y="350" width="160" height="10" as="geometry" />
        </mxCell>
        <mxCell id="bphD4z5EsP9qVGaKrKJl-104" value="" style="endArrow=classic;html=1;rounded=0;exitX=1;exitY=0.5;exitDx=0;exitDy=0;exitPerimeter=0;entryX=0.185;entryY=0.32;entryDx=0;entryDy=0;entryPerimeter=0;" parent="1" source="bphD4z5EsP9qVGaKrKJl-28" target="bphD4z5EsP9qVGaKrKJl-103" edge="1">
          <mxGeometry width="50" height="50" relative="1" as="geometry">
            <mxPoint x="400" y="540" as="sourcePoint" />
            <mxPoint x="680" y="340" as="targetPoint" />
            <Array as="points">
              <mxPoint x="680" y="335" />
            </Array>
          </mxGeometry>
        </mxCell>
        <mxCell id="bphD4z5EsP9qVGaKrKJl-106" value="" style="edgeStyle=orthogonalEdgeStyle;rounded=0;orthogonalLoop=1;jettySize=auto;html=1;exitX=0.25;exitY=0.5;exitDx=0;exitDy=0;exitPerimeter=0;" parent="1" source="bphD4z5EsP9qVGaKrKJl-103" edge="1">
          <mxGeometry relative="1" as="geometry">
            <mxPoint x="709.5" y="430" as="sourcePoint" />
            <mxPoint x="709.5" y="500" as="targetPoint" />
          </mxGeometry>
        </mxCell>
        <mxCell id="bphD4z5EsP9qVGaKrKJl-107" value="" style="edgeStyle=orthogonalEdgeStyle;rounded=0;orthogonalLoop=1;jettySize=auto;html=1;entryX=0.13;entryY=-0.107;entryDx=0;entryDy=0;entryPerimeter=0;" parent="1" target="bphD4z5EsP9qVGaKrKJl-97" edge="1">
          <mxGeometry relative="1" as="geometry">
            <mxPoint x="620" y="460" as="sourcePoint" />
            <mxPoint x="620" y="530" as="targetPoint" />
          </mxGeometry>
        </mxCell>
        <mxCell id="bphD4z5EsP9qVGaKrKJl-108" value="" style="edgeStyle=orthogonalEdgeStyle;rounded=0;orthogonalLoop=1;jettySize=auto;html=1;" parent="1" edge="1">
          <mxGeometry relative="1" as="geometry">
            <mxPoint x="790" y="360" as="sourcePoint" />
            <mxPoint x="790" y="400" as="targetPoint" />
          </mxGeometry>
        </mxCell>
        <mxCell id="bphD4z5EsP9qVGaKrKJl-109" value="" style="edgeStyle=orthogonalEdgeStyle;rounded=0;orthogonalLoop=1;jettySize=auto;html=1;" parent="1" edge="1">
          <mxGeometry relative="1" as="geometry">
            <mxPoint x="660" y="360" as="sourcePoint" />
            <mxPoint x="660" y="430" as="targetPoint" />
          </mxGeometry>
        </mxCell>
        <mxCell id="bphD4z5EsP9qVGaKrKJl-110" value="" style="edgeStyle=orthogonalEdgeStyle;rounded=0;orthogonalLoop=1;jettySize=auto;html=1;exitX=0.65;exitY=0.72;exitDx=0;exitDy=0;exitPerimeter=0;entryX=0.5;entryY=0;entryDx=0;entryDy=0;" parent="1" source="bphD4z5EsP9qVGaKrKJl-103" target="bphD4z5EsP9qVGaKrKJl-102" edge="1">
          <mxGeometry relative="1" as="geometry">
            <mxPoint x="790" y="440" as="sourcePoint" />
            <mxPoint x="800" y="460" as="targetPoint" />
            <Array as="points">
              <mxPoint x="754" y="440" />
              <mxPoint x="800" y="440" />
            </Array>
          </mxGeometry>
        </mxCell>
        <mxCell id="bphD4z5EsP9qVGaKrKJl-111" value="" style="edgeStyle=orthogonalEdgeStyle;rounded=0;orthogonalLoop=1;jettySize=auto;html=1;entryX=0.75;entryY=0;entryDx=0;entryDy=0;exitX=0.563;exitY=1;exitDx=0;exitDy=0;exitPerimeter=0;" parent="1" source="bphD4z5EsP9qVGaKrKJl-103" target="bphD4z5EsP9qVGaKrKJl-24" edge="1">
          <mxGeometry relative="1" as="geometry">
            <mxPoint x="790" y="570" as="sourcePoint" />
            <mxPoint x="790" y="640" as="targetPoint" />
            <Array as="points">
              <mxPoint x="750" y="360" />
              <mxPoint x="750" y="540" />
              <mxPoint x="790" y="540" />
            </Array>
          </mxGeometry>
        </mxCell>
        <mxCell id="bphD4z5EsP9qVGaKrKJl-112" value="" style="edgeStyle=orthogonalEdgeStyle;rounded=0;orthogonalLoop=1;jettySize=auto;html=1;exitX=0.5;exitY=1;exitDx=0;exitDy=0;exitPerimeter=0;" parent="1" source="bphD4z5EsP9qVGaKrKJl-103" edge="1">
          <mxGeometry relative="1" as="geometry">
            <mxPoint x="740" y="500" as="sourcePoint" />
            <mxPoint x="740" y="570" as="targetPoint" />
            <Array as="points">
              <mxPoint x="740" y="360" />
            </Array>
          </mxGeometry>
        </mxCell>
        <mxCell id="bphD4z5EsP9qVGaKrKJl-114" value="&lt;b&gt;remove patient&lt;/b&gt;" style="rounded=0;whiteSpace=wrap;html=1;" parent="1" vertex="1">
          <mxGeometry x="685" y="750" width="80" height="30" as="geometry" />
        </mxCell>
        <mxCell id="bphD4z5EsP9qVGaKrKJl-115" value="" style="edgeStyle=orthogonalEdgeStyle;rounded=0;orthogonalLoop=1;jettySize=auto;html=1;entryX=0.13;entryY=-0.107;entryDx=0;entryDy=0;entryPerimeter=0;exitX=0.16;exitY=1.107;exitDx=0;exitDy=0;exitPerimeter=0;" parent="1" source="bphD4z5EsP9qVGaKrKJl-100" edge="1">
          <mxGeometry relative="1" as="geometry">
            <mxPoint x="660" y="540" as="sourcePoint" />
            <mxPoint x="660" y="670" as="targetPoint" />
          </mxGeometry>
        </mxCell>
        <mxCell id="bphD4z5EsP9qVGaKrKJl-116" value="" style="edgeStyle=orthogonalEdgeStyle;rounded=0;orthogonalLoop=1;jettySize=auto;html=1;entryX=0.13;entryY=-0.107;entryDx=0;entryDy=0;entryPerimeter=0;" parent="1" edge="1">
          <mxGeometry relative="1" as="geometry">
            <mxPoint x="720" y="600" as="sourcePoint" />
            <mxPoint x="720" y="747" as="targetPoint" />
          </mxGeometry>
        </mxCell>
        <mxCell id="bphD4z5EsP9qVGaKrKJl-117" value="" style="line;strokeWidth=2;html=1;" parent="1" vertex="1">
          <mxGeometry x="622.5" y="870" width="217.5" height="10" as="geometry" />
        </mxCell>
        <mxCell id="bphD4z5EsP9qVGaKrKJl-119" value="" style="edgeStyle=orthogonalEdgeStyle;rounded=0;orthogonalLoop=1;jettySize=auto;html=1;entryX=0.13;entryY=-0.107;entryDx=0;entryDy=0;entryPerimeter=0;" parent="1" edge="1">
          <mxGeometry relative="1" as="geometry">
            <mxPoint x="60" y="730" as="sourcePoint" />
            <mxPoint x="60" y="877" as="targetPoint" />
          </mxGeometry>
        </mxCell>
        <mxCell id="bphD4z5EsP9qVGaKrKJl-120" value="" style="edgeStyle=orthogonalEdgeStyle;rounded=0;orthogonalLoop=1;jettySize=auto;html=1;" parent="1" target="bphD4z5EsP9qVGaKrKJl-96" edge="1">
          <mxGeometry relative="1" as="geometry">
            <mxPoint x="345" y="770" as="sourcePoint" />
            <mxPoint x="345" y="820" as="targetPoint" />
            <Array as="points">
              <mxPoint x="345" y="780" />
              <mxPoint x="345" y="780" />
            </Array>
          </mxGeometry>
        </mxCell>
        <mxCell id="bphD4z5EsP9qVGaKrKJl-121" value="" style="edgeStyle=orthogonalEdgeStyle;rounded=0;orthogonalLoop=1;jettySize=auto;html=1;" parent="1" target="bphD4z5EsP9qVGaKrKJl-62" edge="1">
          <mxGeometry relative="1" as="geometry">
            <mxPoint x="137" y="640" as="sourcePoint" />
            <mxPoint x="140" y="727" as="targetPoint" />
            <Array as="points">
              <mxPoint x="137" y="770" />
              <mxPoint x="137" y="770" />
            </Array>
          </mxGeometry>
        </mxCell>
        <mxCell id="bphD4z5EsP9qVGaKrKJl-122" value="" style="edgeStyle=orthogonalEdgeStyle;rounded=0;orthogonalLoop=1;jettySize=auto;html=1;exitX=0.75;exitY=1;exitDx=0;exitDy=0;" parent="1" source="bphD4z5EsP9qVGaKrKJl-21" edge="1">
          <mxGeometry relative="1" as="geometry">
            <mxPoint x="210" y="625" as="sourcePoint" />
            <mxPoint x="240" y="875" as="targetPoint" />
            <Array as="points">
              <mxPoint x="243" y="475" />
              <mxPoint x="243" y="865" />
              <mxPoint x="240" y="865" />
            </Array>
          </mxGeometry>
        </mxCell>
        <mxCell id="bphD4z5EsP9qVGaKrKJl-125" value="" style="edgeStyle=orthogonalEdgeStyle;rounded=0;orthogonalLoop=1;jettySize=auto;html=1;entryX=0.13;entryY=-0.107;entryDx=0;entryDy=0;entryPerimeter=0;" parent="1" edge="1">
          <mxGeometry relative="1" as="geometry">
            <mxPoint x="450" y="720" as="sourcePoint" />
            <mxPoint x="450" y="867" as="targetPoint" />
          </mxGeometry>
        </mxCell>
        <mxCell id="bphD4z5EsP9qVGaKrKJl-126" value="" style="edgeStyle=orthogonalEdgeStyle;rounded=0;orthogonalLoop=1;jettySize=auto;html=1;exitX=0.5;exitY=1;exitDx=0;exitDy=0;entryX=0.871;entryY=0.16;entryDx=0;entryDy=0;entryPerimeter=0;" parent="1" source="bphD4z5EsP9qVGaKrKJl-48" target="bphD4z5EsP9qVGaKrKJl-96" edge="1">
          <mxGeometry relative="1" as="geometry">
            <mxPoint x="530" y="530" as="sourcePoint" />
            <mxPoint x="520" y="830" as="targetPoint" />
          </mxGeometry>
        </mxCell>
        <mxCell id="bphD4z5EsP9qVGaKrKJl-127" value="" style="edgeStyle=orthogonalEdgeStyle;rounded=0;orthogonalLoop=1;jettySize=auto;html=1;" parent="1" edge="1">
          <mxGeometry relative="1" as="geometry">
            <mxPoint x="640" y="700" as="sourcePoint" />
            <mxPoint x="640" y="870" as="targetPoint" />
          </mxGeometry>
        </mxCell>
        <mxCell id="bphD4z5EsP9qVGaKrKJl-128" value="" style="edgeStyle=orthogonalEdgeStyle;rounded=0;orthogonalLoop=1;jettySize=auto;html=1;entryX=0.13;entryY=-0.107;entryDx=0;entryDy=0;entryPerimeter=0;exitX=0.423;exitY=1.12;exitDx=0;exitDy=0;exitPerimeter=0;" parent="1" source="bphD4z5EsP9qVGaKrKJl-114" edge="1">
          <mxGeometry relative="1" as="geometry">
            <mxPoint x="720" y="803" as="sourcePoint" />
            <mxPoint x="720" y="870" as="targetPoint" />
          </mxGeometry>
        </mxCell>
        <mxCell id="bphD4z5EsP9qVGaKrKJl-129" value="" style="edgeStyle=orthogonalEdgeStyle;rounded=0;orthogonalLoop=1;jettySize=auto;html=1;entryX=0.13;entryY=-0.107;entryDx=0;entryDy=0;entryPerimeter=0;exitX=0.64;exitY=1.2;exitDx=0;exitDy=0;exitPerimeter=0;" parent="1" source="bphD4z5EsP9qVGaKrKJl-24" edge="1">
          <mxGeometry relative="1" as="geometry">
            <mxPoint x="780" y="730" as="sourcePoint" />
            <mxPoint x="780" y="877" as="targetPoint" />
          </mxGeometry>
        </mxCell>
        <mxCell id="bphD4z5EsP9qVGaKrKJl-130" value="" style="edgeStyle=orthogonalEdgeStyle;rounded=0;orthogonalLoop=1;jettySize=auto;html=1;entryX=0.13;entryY=-0.107;entryDx=0;entryDy=0;entryPerimeter=0;exitX=0.625;exitY=1;exitDx=0;exitDy=0;exitPerimeter=0;" parent="1" source="bphD4z5EsP9qVGaKrKJl-102" edge="1">
          <mxGeometry relative="1" as="geometry">
            <mxPoint x="810" y="730" as="sourcePoint" />
            <mxPoint x="810" y="877" as="targetPoint" />
            <Array as="points">
              <mxPoint x="830" y="530" />
              <mxPoint x="830" y="704" />
              <mxPoint x="810" y="704" />
            </Array>
          </mxGeometry>
        </mxCell>
        <mxCell id="bphD4z5EsP9qVGaKrKJl-131" value="" style="ellipse;html=1;shape=endState;fillColor=#000000;strokeColor=#ff0000;" parent="1" vertex="1">
          <mxGeometry x="425" y="1020" width="30" height="30" as="geometry" />
        </mxCell>
        <mxCell id="bphD4z5EsP9qVGaKrKJl-132" value="&lt;b&gt;Logout&lt;/b&gt;" style="rounded=0;whiteSpace=wrap;html=1;" parent="1" vertex="1">
          <mxGeometry x="400" y="940" width="90" height="30" as="geometry" />
        </mxCell>
        <mxCell id="bphD4z5EsP9qVGaKrKJl-133" value="" style="endArrow=classic;html=1;rounded=0;entryX=0;entryY=0.75;entryDx=0;entryDy=0;" parent="1" target="bphD4z5EsP9qVGaKrKJl-132" edge="1">
          <mxGeometry width="50" height="50" relative="1" as="geometry">
            <mxPoint x="80" y="880" as="sourcePoint" />
            <mxPoint x="450" y="920" as="targetPoint" />
            <Array as="points">
              <mxPoint x="80" y="963" />
            </Array>
          </mxGeometry>
        </mxCell>
        <mxCell id="bphD4z5EsP9qVGaKrKJl-135" value="" style="endArrow=classic;html=1;rounded=0;exitX=0.551;exitY=0.8;exitDx=0;exitDy=0;exitPerimeter=0;entryX=0.5;entryY=0;entryDx=0;entryDy=0;" parent="1" source="bphD4z5EsP9qVGaKrKJl-96" target="bphD4z5EsP9qVGaKrKJl-132" edge="1">
          <mxGeometry width="50" height="50" relative="1" as="geometry">
            <mxPoint x="435.0050000000001" y="890" as="sourcePoint" />
            <mxPoint x="445" y="930" as="targetPoint" />
          </mxGeometry>
        </mxCell>
        <mxCell id="bphD4z5EsP9qVGaKrKJl-136" value="" style="endArrow=classic;html=1;rounded=0;exitX=0.54;exitY=1;exitDx=0;exitDy=0;exitPerimeter=0;entryX=1;entryY=0.5;entryDx=0;entryDy=0;" parent="1" source="bphD4z5EsP9qVGaKrKJl-117" target="bphD4z5EsP9qVGaKrKJl-132" edge="1">
          <mxGeometry width="50" height="50" relative="1" as="geometry">
            <mxPoint x="400" y="970" as="sourcePoint" />
            <mxPoint x="640" y="970" as="targetPoint" />
            <Array as="points">
              <mxPoint x="740" y="960" />
            </Array>
          </mxGeometry>
        </mxCell>
        <mxCell id="bphD4z5EsP9qVGaKrKJl-137" value="" style="endArrow=classic;html=1;rounded=0;exitX=0.431;exitY=1.133;exitDx=0;exitDy=0;entryX=0.5;entryY=0;entryDx=0;entryDy=0;exitPerimeter=0;" parent="1" source="bphD4z5EsP9qVGaKrKJl-132" target="bphD4z5EsP9qVGaKrKJl-131" edge="1">
          <mxGeometry width="50" height="50" relative="1" as="geometry">
            <mxPoint x="400" y="970" as="sourcePoint" />
            <mxPoint x="450" y="920" as="targetPoint" />
          </mxGeometry>
        </mxCell>
        <mxCell id="V0uu-5ZSXQPXKkQwgFp0-1" value="&lt;b&gt;Print appointment&lt;/b&gt;" style="rounded=0;whiteSpace=wrap;html=1;" vertex="1" parent="1">
          <mxGeometry x="105" y="610" width="80" height="30" as="geometry" />
        </mxCell>
        <mxCell id="V0uu-5ZSXQPXKkQwgFp0-2" value="" style="endArrow=classic;html=1;rounded=0;exitX=0.75;exitY=1;exitDx=0;exitDy=0;entryX=0.5;entryY=0;entryDx=0;entryDy=0;" edge="1" parent="1" source="bphD4z5EsP9qVGaKrKJl-20" target="V0uu-5ZSXQPXKkQwgFp0-1">
          <mxGeometry width="50" height="50" relative="1" as="geometry">
            <mxPoint x="390" y="610" as="sourcePoint" />
            <mxPoint x="440" y="560" as="targetPoint" />
          </mxGeometry>
        </mxCell>
        <mxCell id="V0uu-5ZSXQPXKkQwgFp0-3" value="&lt;b&gt;check services&lt;/b&gt;" style="rounded=0;whiteSpace=wrap;html=1;" vertex="1" parent="1">
          <mxGeometry x="150" y="540" width="80" height="30" as="geometry" />
        </mxCell>
        <mxCell id="V0uu-5ZSXQPXKkQwgFp0-4" value="" style="endArrow=classic;html=1;rounded=0;exitX=1;exitY=1;exitDx=0;exitDy=0;entryX=0.5;entryY=0;entryDx=0;entryDy=0;" edge="1" parent="1" source="bphD4z5EsP9qVGaKrKJl-47" target="V0uu-5ZSXQPXKkQwgFp0-3">
          <mxGeometry width="50" height="50" relative="1" as="geometry">
            <mxPoint x="390" y="610" as="sourcePoint" />
            <mxPoint x="440" y="560" as="targetPoint" />
          </mxGeometry>
        </mxCell>
        <mxCell id="V0uu-5ZSXQPXKkQwgFp0-5" value="" style="endArrow=classic;html=1;rounded=0;exitX=0.75;exitY=1;exitDx=0;exitDy=0;entryX=0.75;entryY=0.5;entryDx=0;entryDy=0;entryPerimeter=0;" edge="1" parent="1" source="V0uu-5ZSXQPXKkQwgFp0-3" target="bphD4z5EsP9qVGaKrKJl-62">
          <mxGeometry width="50" height="50" relative="1" as="geometry">
            <mxPoint x="390" y="610" as="sourcePoint" />
            <mxPoint x="440" y="560" as="targetPoint" />
          </mxGeometry>
        </mxCell>
        <mxCell id="V0uu-5ZSXQPXKkQwgFp0-6" value="&lt;b&gt;Print appointment list&lt;/b&gt;" style="rounded=0;whiteSpace=wrap;html=1;" vertex="1" parent="1">
          <mxGeometry x="300" y="730" width="100" height="40" as="geometry" />
        </mxCell>
        <mxCell id="V0uu-5ZSXQPXKkQwgFp0-7" value="" style="endArrow=classic;html=1;rounded=0;exitX=0.5;exitY=1;exitDx=0;exitDy=0;" edge="1" parent="1" source="bphD4z5EsP9qVGaKrKJl-92">
          <mxGeometry width="50" height="50" relative="1" as="geometry">
            <mxPoint x="390" y="610" as="sourcePoint" />
            <mxPoint x="345" y="730" as="targetPoint" />
          </mxGeometry>
        </mxCell>
      </root>
    </mxGraphModel>
  </diagram>
</mxfile>
